<?xml version="1.0" encoding="UTF-8"?>
<svg xmlns="http://www.w3.org/2000/svg" xmlns:xlink="http://www.w3.org/1999/xlink" width="2626" height="2401" viewBox="0 0 2626 2401">
<path fill-rule="nonzero" fill="#c4956a" fill-opacity="1" d="M 41.410156 10.289062 C 25.4375 52.738281 8.613281 172.929688 2.90625 288.75 C -0.800781 365.230469 -0.800781 560.960938 2.90625 662.109375 C 6.902344 768.25 18.308594 948.058594 27.148438 1047.640625 C 31.140625 1091.96875 35.703125 1154.410156 37.128906 1186.25 C 44.832031 1350.769531 63.9375 1478.132812 101.011719 1606.4375 C 224.785156 2036.925781 532.214844 2306.019531 985.375 2380.320312 C 1086.328125 2396.863281 1147.929688 2400.609375 1313.339844 2400.609375 C 1478.75 2400.609375 1540.921875 2396.550781 1641.308594 2380.320312 C 1990.660156 2322.878906 2258.160156 2147.4375 2415.589844 1872.410156 C 2439.261719 1831.203125 2482.320312 1737.863281 2498 1693.535156 C 2552.480469 1540.878906 2579.570312 1391.660156 2589.550781 1190.929688 C 2590.980469 1160.03125 2595.539062 1098.21875 2599.25 1053.570312 C 2606.660156 970.230469 2615.21875 846.609375 2621.488281 733.601562 C 2626.339844 644 2626.339844 297.179688 2621.488281 237.238281 C 2612.648438 129.851562 2594.679688 21.53125 2583.28125 4.359375 C 2579.859375 -0.640625 2529.378906 19.960938 2487.449219 43.691406 C 2368.53125 109.871094 2171.179688 263.460938 1965.558594 448.890625 C 1939.320312 472.621094 1916.511719 492.910156 1914.800781 494.160156 C 1912.800781 495.410156 1894.269531 487.289062 1873.160156 476.359375 C 1733.421875 403 1577.988281 351.808594 1440.25 333.390625 C 1399.75 327.769531 1226.929688 327.769531 1186.429688 333.390625 C 1045.839844 352.429688 897.539062 401.441406 750.953125 477.929688 C 720.152344 493.851562 714.164062 496.03125 709.886719 492.601562 C 707.035156 490.410156 681.367188 467.308594 652.5625 441.398438 C 398.460938 212.269531 184.570312 53.988281 67.929688 9.351562 L 45.117188 0.609375 Z M 41.410156 10.289062 "/>
</svg>
